<svg xmlns="http://www.w3.org/2000/svg"
    xmlns:xlink="http://www.w3.org/1999/xlink" version="1.1" x="0px" y="0px" viewBox="0 0 64 64" style="enable-background:new 0 0 64 64;max-width:100%" xml:space="preserve" height="100%">
    <path d="M3,58h1v3c0,0.552,0.447,1,1,1h4c0.553,0,1-0.448,1-1v-3h12v3c0,0.552,0.447,1,1,1h4c0.553,0,1-0.448,1-1v-3h1  c0.553,0,1-0.448,1-1V46c0-1.858-1.279-3.411-3-3.858V39c0-2.757-2.243-5-5-5H10c-2.757,0-5,2.243-5,5v3.142  c-1.721,0.447-3,2-3,3.858v11C2,57.552,2.447,58,3,58z M8,60H6v-2h2V60z M26,60h-2v-2h2V60z M7,39c0-1.654,1.346-3,3-3h12  c1.654,0,3,1.346,3,3v3.126c-0.139,0.036-0.27,0.091-0.404,0.141c-0.06,0.023-0.123,0.038-0.182,0.064  c-0.221,0.096-0.432,0.21-0.63,0.343c-0.043,0.029-0.08,0.065-0.122,0.096c-0.151,0.11-0.297,0.227-0.431,0.356  c-0.06,0.058-0.114,0.122-0.17,0.184c-0.105,0.115-0.205,0.233-0.297,0.36c-0.053,0.074-0.102,0.149-0.15,0.227  c-0.081,0.129-0.153,0.263-0.218,0.402c-0.039,0.082-0.078,0.163-0.111,0.248c-0.06,0.153-0.106,0.312-0.147,0.474  c-0.02,0.077-0.045,0.151-0.06,0.23C22.029,45.494,22,45.743,22,46v4H10v-4c0-0.257-0.029-0.506-0.076-0.75  c-0.015-0.079-0.04-0.153-0.06-0.23c-0.041-0.162-0.087-0.321-0.147-0.474c-0.033-0.085-0.072-0.166-0.111-0.248  c-0.066-0.139-0.138-0.272-0.218-0.402c-0.048-0.077-0.097-0.153-0.15-0.227c-0.091-0.127-0.192-0.245-0.297-0.36  c-0.057-0.062-0.11-0.126-0.17-0.184c-0.134-0.13-0.28-0.246-0.431-0.356c-0.042-0.031-0.079-0.067-0.122-0.096  c-0.198-0.133-0.409-0.247-0.63-0.343c-0.059-0.026-0.122-0.041-0.182-0.064C7.27,42.217,7.139,42.162,7,42.126V39z M4,46  c0-1.103,0.897-2,2-2s2,0.897,2,2v5c0,0.552,0.447,1,1,1h14c0.553,0,1-0.448,1-1v-5c0-1.103,0.897-2,2-2s2,0.897,2,2v10H4V46z" style="" fill="currentColor"></path>
    <path d="M61,40h-4.22l-0.811-3.243C55.858,36.312,55.459,36,55,36h-3v-2h6c0.553,0,1-0.448,1-1V23c0-0.552-0.447-1-1-1h-4v-3  c0-0.43-0.274-0.789-0.655-0.93l3.362-3.362l-1.414-1.414L51,17.586l-4.293-4.293l-1.414,1.414l3.363,3.363  C48.274,18.211,48,18.57,48,19v3h-4c-0.553,0-1,0.448-1,1v10c0,0.552,0.447,1,1,1h6v2h-3c-0.459,0-0.858,0.312-0.97,0.757L45.22,40  H41c-0.553,0-1,0.448-1,1v6v10v5h2v-4h18v4h2v-5V47v-6C62,40.448,61.553,40,61,40z M50,20h2v2h-2V20z M45,24h12v8H45V24z M60,48v8  h-8v-8H60z M47.781,38h6.438l0.5,2h-7.438L47.781,38z M42,42h18v4H42V42z M42,48h8v8h-8V48z" style="" fill="currentColor"></path>
    <rect x="54" y="51" width="2" height="2" style="" fill="currentColor"></rect>
    <rect x="46" y="51" width="2" height="2" style="" fill="currentColor"></rect>
    <path d="M41,23c0.294,0,0.573-0.129,0.763-0.354c0.19-0.225,0.272-0.521,0.224-0.811l-2-12C39.906,9.354,39.489,9,39,9h-8  c-0.489,0-0.906,0.354-0.986,0.835l-2,12c-0.049,0.29,0.033,0.586,0.224,0.811C28.427,22.871,28.706,23,29,23h5v37h-2v2h6v-2h-2V23  H41z M31.847,11h6.307l1.666,10h-9.639L31.847,11z" style="" fill="currentColor"></path>
    <path d="M3,24h22c0.553,0,1-0.448,1-1V9c0-0.552-0.447-1-1-1h-1.697l-8.748-5.832c-0.336-0.224-0.773-0.224-1.109,0L4.697,8H3  C2.447,8,2,8.448,2,9v14C2,23.552,2.447,24,3,24z M14,4.202L19.697,8H8.303L14,4.202z M4,10h20v12H4V10z" style="" fill="currentColor"></path>
    <path d="M17.832,12.445c-0.371-0.557-1.293-0.557-1.664,0l-3.216,4.824L10.8,14.4c-0.377-0.504-1.223-0.504-1.6,0l-3,4  c-0.228,0.303-0.264,0.708-0.095,1.047C6.275,19.786,6.621,20,7,20h5.997c0.001,0,0.002,0,0.003,0s0.002,0,0.003,0H21  c0.369,0,0.708-0.203,0.882-0.528s0.154-0.72-0.05-1.026L17.832,12.445z M9,18l1-1.333L11,18H9z M14.868,18L17,14.803L19.132,18  H14.868z" style="" fill="currentColor"></path>
</svg>