<svg xmlns="http://www.w3.org/2000/svg"
    xmlns:xlink="http://www.w3.org/1999/xlink" version="1.1" x="0px" y="0px" viewBox="0 0 512 512" style="enable-background:new 0 0 64 64; max-width:100%" xml:space="preserve" height="100%">
    <g style="" fill="currentColor">
        <g style="" fill="currentColor">
            <g style="" fill="currentColor">
                <g style="" fill="currentColor">
                    <path d="M480.996,426.4c-3.678,0-6.743-2.858-6.981-6.548l-0.026-0.322c-0.014-0.203-0.019-0.406-0.015-0.609l0.016-0.531      c0.005-0.128,0.011-0.255,0.011-0.384c0-3.866,3.134-7,7-7s7,3.134,7,7v1.395c0,3.785-3.009,6.885-6.793,6.997      C481.137,426.399,481.066,426.4,480.996,426.4z" style="" fill="currentColor"></path>
                </g>
                <g style="" fill="currentColor">
                    <path d="M421,428c-3.866,0-7-3.134-7-7V111c0-21.158,16.23-37.732,36.95-37.732c20.43,0,37.05,17.432,37.05,38.858v306.868      c0,3.866-3.134,7-7,7s-7-3.134-7-7V112.125c0-13.707-10.34-24.858-23.05-24.858C437.866,87.268,428,97.47,428,111v310      C428,424.866,424.866,428,421,428z" style="" fill="currentColor"></path>
                </g>
                <g style="" fill="currentColor">
                    <path d="M431,478H31c-3.866,0-7-3.134-7-7V111c0-3.866,3.134-7,7-7h390c3.866,0,7,3.134,7,7v280.618      c6.379-5.593,14.404-8.969,22.95-8.969c19.414,0,35.669,15.788,37.007,35.943c0.014,0.201,0.019,0.402,0.015,0.604      c-0.319,15.911-6.047,30.617-16.127,41.408C461.366,471.822,446.861,478,431,478z M38,464h393      c24.28,0,42.307-18.809,42.967-44.771c-0.984-12.685-11.041-22.579-23.017-22.579c-11.693,0-22.208,11.331-22.961,24.743      c-0.209,3.717-3.286,6.607-6.985,6.607c-0.067,0-0.134-0.001-0.2-0.003C417.016,427.891,414,424.79,414,421V118H38V464z" style="" fill="currentColor"></path>
                </g>
                <g style="" fill="currentColor">
                    <path d="M256,298H76c-3.866,0-7-3.134-7-7V161c0-3.866,3.134-7,7-7h180c3.866,0,7,3.134,7,7v130      C263,294.866,259.866,298,256,298z M83,284h166V168H83V284z" style="" fill="currentColor"></path>
                </g>
                <g style="" fill="currentColor">
                    <path d="M146,228H76c-3.866,0-7-3.134-7-7v-60c0-3.866,3.134-7,7-7h70c3.866,0,7,3.134,7,7v60C153,224.866,149.866,228,146,228z       M83,214h56v-46H83V214z" style="" fill="currentColor"></path>
                </g>
                <g style="" fill="currentColor">
                    <path d="M366,438H256c-3.866,0-7-3.134-7-7V241c0-3.866,3.134-7,7-7h110c3.866,0,7,3.134,7,7v190      C373,434.866,369.866,438,366,438z M263,424h96V248h-96V424z" style="" fill="currentColor"></path>
                </g>
                <g style="" fill="currentColor">
                    <path d="M206,378h-90c-3.866,0-7-3.134-7-7v-80c0-3.866,3.134-7,7-7h90c3.866,0,7,3.134,7,7v80C213,374.866,209.866,378,206,378      z M123,364h76v-66h-76V364z" style="" fill="currentColor"></path>
                </g>
                <g style="" fill="currentColor">
                    <path d="M316,248h-60c-3.866,0-7-3.134-7-7v-50c0-3.866,3.134-7,7-7h60c3.866,0,7,3.134,7,7v50C323,244.866,319.866,248,316,248      z M263,234h46v-36h-46V234z" style="" fill="currentColor"></path>
                </g>
                <g style="" fill="currentColor">
                    <path d="M216,478H76c-3.866,0-7-3.134-7-7v-50c0-3.866,3.134-7,7-7h140c3.866,0,7,3.134,7,7v50C223,474.866,219.866,478,216,478      z M83,464h126v-36H83V464z" style="" fill="currentColor"></path>
                </g>
                <g style="" fill="currentColor">
                    <path d="M346,88H116c-1.087,0-2.159-0.253-3.13-0.739l-40-20C70.498,66.075,69,63.651,69,61s1.498-5.075,3.87-6.261l40-20      C113.841,34.253,114.913,34,116,34h230c14.888,0,27,12.112,27,27S360.888,88,346,88z M117.652,74H346c7.168,0,13-5.832,13-13      s-5.832-13-13-13H117.652l-26,13L117.652,74z" style="" fill="currentColor"></path>
                </g>
                <g style="" fill="currentColor">
                    <path d="M326,88c-3.866,0-7-3.134-7-7V41c0-3.866,3.134-7,7-7s7,3.134,7,7v40C333,84.866,329.866,88,326,88z" style="" fill="currentColor"></path>
                </g>
                <g style="" fill="currentColor">
                    <path d="M296,88c-3.866,0-7-3.134-7-7V41c0-3.866,3.134-7,7-7s7,3.134,7,7v40C303,84.866,299.866,88,296,88z" style="" fill="currentColor"></path>
                </g>
                <g style="" fill="currentColor">
                    <path d="M316,438c-3.866,0-7-3.134-7-7V321c0-3.866,3.134-7,7-7h20c3.866,0,7,3.134,7,7s-3.134,7-7,7h-13v103      C323,434.866,319.866,438,316,438z" style="" fill="currentColor"></path>
                </g>
                <g style="" fill="currentColor">
                    <path d="M256,228h-70c-3.866,0-7-3.134-7-7s3.134-7,7-7h70c3.866,0,7,3.134,7,7S259.866,228,256,228z" style="" fill="currentColor"></path>
                </g>
            </g>
        </g>
    </g>
</svg>