<svg xmlns:dc="http://purl.org/dc/elements/1.1/"
    xmlns:cc="http://creativecommons.org/ns#"
    xmlns:rdf="http://www.w3.org/1999/02/22-rdf-syntax-ns#"
    xmlns:svg="http://www.w3.org/2000/svg"
    xmlns="http://www.w3.org/2000/svg"
    xmlns:sodipodi="http://sodipodi.sourceforge.net/DTD/sodipodi-0.dtd"
    xmlns:inkscape="http://www.inkscape.org/namespaces/inkscape" version="1.1" x="0px" y="0px" viewBox="0 0 128 128" enable-background="new 0 0 64 64" xml:space="preserve" style="max-width:100%" height="100%">
    <path d="M 62 1 L 62 2.6992188 L 54.5 2.6992188 C 52.1 2.6992188 50.199609 4.3 49.599609 6.5 C 39.504132 11.457601 32.759413 21.213527 31.523438 32.169922 C 23.139763 32.727019 16.390978 36.84726 12.400391 43.900391 L 12.099609 44.5 C 9.2996094 46.8 7.5 50.299609 7.5 54.099609 L 7.5 55.300781 C 5.2 55.500781 3.3007812 57.500391 3.3007812 59.900391 L 3.3007812 65.699219 C 3.3007812 68.099219 5.1 70.100781 7.5 70.300781 L 7.5 85.599609 C 7.5 91.099609 9.3992188 96.199219 12.699219 100.19922 L 7.5996094 102.69922 C 4.1996094 104.29922 2 107.79961 2 111.59961 L 2 126 L 26.199219 126 L 26.199219 125.80078 L 103 125.80078 L 122.30078 125.80078 L 122.30078 111.5 C 122.30078 107.7 120.09922 104.29961 116.69922 102.59961 L 101.09961 95 L 101.09961 94.599609 C 106.29961 90.899609 109.99961 84.9 112.09961 80.5 L 115.90039 81.199219 C 116.30039 81.299219 116.7 81.300781 117 81.300781 C 120.2 81.300781 122.9 79.000391 123.5 75.900391 L 125.90039 62.400391 C 126.50039 58.800391 124.30078 55.499219 120.80078 54.699219 C 120.0108 40.77587 109.46624 29.200345 95.529297 27.275391 C 93.08908 18.371314 86.944302 10.79528 78.400391 6.5996094 C 77.800391 4.3996094 75.9 2.8007812 73.5 2.8007812 L 66 2.8007812 L 66 1 L 62 1 z M 54.5 6.6992188 L 62 6.6992188 L 62 29.699219 L 66 29.699219 L 66 6.6992188 L 73.5 6.6992188 C 74.1 6.6992188 74.599609 7.2007812 74.599609 7.8007812 L 74.599609 23.099609 L 78.599609 23.099609 L 78.599609 11.099609 C 87.299609 16.199609 92.699219 25.600781 92.699219 35.800781 L 92.699219 39.400391 L 97 40.599609 L 97 43.199219 L 31 43.199219 L 31 40.699219 L 35.300781 39.5 L 35.300781 35.900391 C 35.300781 25.700391 40.800391 16.299219 49.400391 11.199219 L 49.400391 23.199219 L 53.400391 23.199219 L 53.400391 7.8007812 C 53.400391 7.2007813 53.9 6.6992188 54.5 6.6992188 z M 96.398438 31.507812 C 107.36619 33.652836 115.66552 42.836637 116.80078 54 L 115.90039 53.800781 C 113.6759 42.194762 106.67045 34.627675 96.533203 32.785156 C 96.492479 32.358491 96.455607 31.930446 96.398438 31.507812 z M 42.5 36 L 42.5 40 L 85.5 40 L 85.5 36 L 42.5 36 z M 31.300781 36.189453 L 31.300781 36.400391 L 27 37.699219 L 27 41.599609 L 20 41.599609 C 19.7 41.599609 19.3 41.599219 19 41.699219 C 22.149587 38.462143 26.295023 36.604036 31.300781 36.189453 z M 101 38.498047 C 107.04105 41.527152 110.97343 47.666643 112.19922 56.400391 L 111.19922 61.900391 L 111 61.900391 C 105.88161 62.716366 101.26014 61.602719 97.009766 59.873047 C 97.955412 59.324845 98.772088 58.596794 99.400391 57.699219 C 101.10039 55.299219 101.39922 52.1 100.19922 49.5 C 99.799219 48.6 99.199609 47.900781 98.599609 47.300781 L 101 47.300781 L 101 38.498047 z M 20 45.599609 L 27 45.599609 L 27 47.300781 L 29.400391 47.300781 C 28.700391 47.900781 28.200781 48.7 27.800781 49.5 C 26.600781 52.1 26.899609 55.299219 28.599609 57.699219 C 29.697716 59.236568 31.226906 60.233725 32.986328 60.699219 L 16.900391 60.699219 L 16.900391 74.900391 L 41.773438 74.900391 C 45.199845 80.267249 48.740058 83.788014 52 86.099609 L 52 87.699219 L 48.300781 89.5 L 31.800781 97.5 C 29.03259 98.850337 26.906146 101.20572 25.814453 104.00781 C 17.438515 101.78424 11.5 94.288351 11.5 85.5 L 11.5 54.099609 C 11.5 49.399609 15.3 45.599609 20 45.599609 z M 36.300781 47.300781 L 91.699219 47.300781 C 91.599219 50.500781 90.900781 55.300781 89.800781 58.300781 C 80.800781 83.400781 68.8 86.099609 64 86.099609 C 59.3 86.199609 47.300781 83.500391 38.300781 58.400391 C 37.400781 55.100391 36.500781 51.600781 36.300781 47.300781 z M 32.5 50 C 32.7 52.5 33.199219 54.700781 33.699219 56.800781 C 32.799219 56.500781 32.200781 55.900391 31.800781 55.400391 C 30.900781 54.200391 30.800391 52.500781 31.400391 51.300781 C 31.700391 50.800781 32 50.3 32.5 50 z M 95.5 50 C 96 50.3 96.399609 50.700781 96.599609 51.300781 C 97.199609 52.500781 97.099219 54.200391 96.199219 55.400391 C 95.799219 55.900391 95.300391 56.500781 94.400391 56.800781 C 94.900391 54.600781 95.3 52.2 95.5 50 z M 116.09961 57.900391 L 119.90039 58.599609 C 121.30039 58.899609 122.2 60.199609 122 61.599609 L 119.59961 75.099609 C 119.39961 76.499609 117.99961 77.399219 116.59961 77.199219 L 112.80078 76.5 L 116.09961 57.900391 z M 7.5 59.400391 L 7.5 66.099609 C 7.4 65.899609 7.3007813 65.799609 7.3007812 65.599609 L 7.3007812 59.800781 C 7.3007812 59.600781 7.4 59.500391 7.5 59.400391 z M 92.498047 62.289062 C 96.853946 64.379786 101.90794 66.199219 107.59961 66.199219 C 108.49961 66.199219 109.50039 66.1 110.40039 66 L 108 79.5 C 101.5 92.4 94.199219 93.900391 91.199219 93.900391 C 90.204593 93.900391 88.876335 93.735538 87.335938 93.183594 L 84.5625 91.833984 C 82.403357 90.503781 80.015021 88.347943 77.601562 84.914062 C 82.58142 80.977345 87.900006 74.076127 92.498047 62.289062 z M 20.900391 64.699219 L 36.484375 64.699219 C 37.443178 66.958511 38.429009 69.022099 39.435547 70.900391 L 20.900391 70.900391 L 20.900391 64.699219 z M 55.900391 88.099609 C 59.200391 89.599609 62.000391 89.900391 63.900391 89.900391 C 65.800391 89.900391 68.600391 89.599609 71.900391 88.099609 L 71.900391 89 C 72.000391 89.1 72 89.099219 72 89.199219 C 72 89.499219 71.900391 89.900781 71.900391 90.300781 C 71.900391 90.500781 71.800781 90.8 71.800781 91 C 71.700781 91.2 71.699609 91.399609 71.599609 91.599609 C 71.599609 91.599609 71.6 91.699219 71.5 91.699219 C 71.4 91.899219 71.400781 91.999219 71.300781 92.199219 C 71.300781 92.299219 71.199609 92.4 71.099609 92.5 C 71.099609 92.6 71.000391 92.700781 70.900391 92.800781 L 70.599609 93.400391 C 69.699609 94.700391 68.499609 95.700781 67.099609 96.300781 L 67 96.300781 C 66.8 96.400781 66.600391 96.5 66.400391 96.5 L 66.300781 96.5 C 66.100781 96.6 65.899219 96.599609 65.699219 96.599609 L 65.5 96.599609 C 65.3 96.599609 65.100391 96.699219 64.900391 96.699219 L 64.699219 96.699219 L 63.900391 96.699219 C 59.500391 96.699219 55.900391 93.099219 55.900391 88.699219 L 55.900391 88.099609 z M 52.400391 92 C 52.400391 92.1 52.5 92.200781 52.5 92.300781 C 52.5 92.400781 52.599609 92.599219 52.599609 92.699219 C 52.699609 92.899219 52.800391 93.200391 52.900391 93.400391 C 52.900391 93.500391 53 93.599219 53 93.699219 C 53.1 93.999219 53.300391 94.3 53.400391 94.5 C 53.400391 94.5 53.4 94.599609 53.5 94.599609 L 54.099609 95.5 C 54.199609 95.6 54.200781 95.700781 54.300781 95.800781 C 54.400781 96.000781 54.600781 96.200391 54.800781 96.400391 L 55.099609 96.699219 C 55.199609 96.899219 55.399609 96.999219 55.599609 97.199219 L 55.900391 97.5 L 56.400391 98 L 56.699219 98.300781 C 56.899219 98.500781 57.100781 98.600781 57.300781 98.800781 C 57.400781 98.900781 57.5 98.9 57.5 99 L 58.400391 99.599609 C 58.500391 99.599609 58.499609 99.699219 58.599609 99.699219 C 58.899609 99.799219 59.100391 99.999609 59.400391 100.09961 C 59.500391 100.19961 59.600781 100.19922 59.800781 100.19922 C 60.000781 100.29922 60.2 100.40039 60.5 100.40039 C 60.6 100.40039 60.800391 100.5 60.900391 100.5 C 61.100391 100.6 61.399609 100.59922 61.599609 100.69922 C 61.699609 100.69922 61.9 100.80078 62 100.80078 C 62.2 100.80078 62.500781 100.90039 62.800781 100.90039 L 63.199219 100.90039 C 63.599219 100.90039 64.000781 101 64.300781 101 L 65.400391 101 C 65.600391 101 65.800391 101.00039 65.900391 100.90039 C 66.100391 100.90039 66.200391 100.90078 66.400391 100.80078 C 66.600391 100.80078 66.899609 100.69961 67.099609 100.59961 C 67.199609 100.59961 67.300391 100.6 67.400391 100.5 C 67.700391 100.4 67.899219 100.30078 68.199219 100.30078 L 68.400391 100.30078 C 68.700391 100.20078 68.999219 100.1 69.199219 100 L 69.300781 100 C 69.600781 99.9 69.899609 99.699609 70.099609 99.599609 C 70.399609 99.399609 70.600391 99.299609 70.900391 99.099609 C 71.200391 98.899609 71.399609 98.799609 71.599609 98.599609 C 71.599609 98.599609 71.699219 98.6 71.699219 98.5 C 71.899219 98.3 72.100781 98.1 72.300781 98 L 72.400391 97.900391 L 72.900391 97.400391 C 73.000391 97.300391 73.099609 97.199609 73.099609 97.099609 C 73.199609 96.999609 73.3 96.799219 73.5 96.699219 C 73.6 96.499219 73.800391 96.399219 73.900391 96.199219 C 74.000391 96.099219 73.999609 96 74.099609 96 C 74.899609 94.9 75.500781 93.599219 75.800781 92.199219 L 94.599609 101.30078 C 97.399609 102.60078 99.099609 105.5 99.099609 108.5 L 99.099609 121.80078 L 99 121.80078 L 90 121.80078 L 90 119 L 86 119 L 86 121.80078 L 42 121.80078 L 42 119 L 38 119 L 38 121.80078 L 29 121.80078 L 29 108.30078 C 29 105.20078 30.8 102.39961 33.5 101.09961 L 52.400391 92 z M 97.400391 96.699219 C 97.800391 97.599219 98.500781 98.299219 99.300781 98.699219 L 114.90039 106.19922 C 116.90039 107.19922 118.19922 109.2 118.19922 111.5 L 118.19922 121.80078 L 112.19922 121.80078 L 112.19922 120.09961 L 108.19922 120.09961 L 108.19922 121.80078 L 103 121.80078 L 103 108.30078 C 103 103.70078 100.29922 99.5 96.199219 97.5 L 95.710938 97.261719 C 96.289948 97.095261 96.857735 96.910252 97.400391 96.699219 z M 15.699219 103.19922 C 18.373618 105.42788 21.52731 107.09505 25.013672 107.92773 C 25.009705 108.05219 25 108.17569 25 108.30078 L 25 122 L 16.199219 122 L 16.199219 120.09961 L 12.199219 120.09961 L 12.199219 122 L 6 122 L 6 111.59961 C 6 109.39961 7.3007812 107.30078 9.3007812 106.30078 L 15.699219 103.19922 z " style="" fill="currentColor"></path>
</svg>